<?xml version="1.0" encoding="UTF-8"?>
<svg version="1.1" xmlns="http://www.w3.org/2000/svg" width="709" height="723">
<path d="M0 0 C1.28997894 0.1887973 1.28997894 0.1887973 2.60601807 0.38140869 C62.64034838 9.24846474 114.63065267 23.61857227 166 57 C166.92619141 57.60134766 167.85238281 58.20269531 168.80664062 58.82226562 C186.17044065 70.14648303 203.014852 82.01544185 218.9375 95.30224609 C220.41787443 96.52082135 221.91475544 97.71944777 223.421875 98.90478516 C230.87154329 104.82061801 237.60098259 111.29346864 244.29833984 118.03759766 C246.12248747 119.87247269 247.95709873 121.69639332 249.79296875 123.51953125 C256.65063173 130.3686892 263.04785585 137.33773644 269 145 C269.53463867 145.67530762 270.06927734 146.35061523 270.62011719 147.04638672 C278.86438236 157.53483229 286.14015991 168.56614115 293 180 C293.65331299 181.08571289 293.65331299 181.08571289 294.31982422 182.19335938 C326.11576814 235.63890603 342.96988737 306.42756727 343.25 368.4375 C343.2809375 370.14389648 343.2809375 370.14389648 343.3125 371.88476562 C343.3525111 380.65219798 342.80918201 389.65853689 337.9375 397.1875 C334.45092846 400.44913144 331.56098056 400.26430124 326.875 400.5625 C324.95300781 400.68818359 324.95300781 400.68818359 322.9921875 400.81640625 C322.00476563 400.87699219 321.01734375 400.93757813 320 401 C319.83056885 401.54269028 319.6611377 402.08538055 319.48657227 402.64451599 C317.65081938 408.35490183 315.43702832 413.77412771 312.9375 419.22265625 C312.54977921 420.07730469 312.16205841 420.93195313 311.7625885 421.8125 C310.51277751 424.56451929 309.25658252 427.31356689 308 430.0625 C307.13174616 431.96981873 306.26382802 433.87729031 305.39624023 435.78491211 C303.69506589 439.52320271 301.99119526 443.2602438 300.28466797 446.99609375 C298.42479553 451.06767285 296.57182368 455.14229912 294.72265625 459.21875 C270.32886787 512.89546845 243.17047849 565.82641033 203.09765625 609.6796875 C201.28292559 611.6870432 199.54608313 613.73567609 197.8125 615.8125 C183.23994736 632.42387308 165.04619542 645.07112136 146 656 C144.91307861 656.62986816 144.91307861 656.62986816 143.80419922 657.27246094 C122.36825177 669.55581977 98.86216359 677.8496771 75 684 C73.99356445 684.26119629 72.98712891 684.52239258 71.95019531 684.79150391 C54.75293222 689.17889265 37.4141362 692.00948268 19.86547852 694.52270508 C16.93943047 694.93349089 16.93943047 694.93349089 14 696 C14.19335938 696.56847656 14.38671875 697.13695312 14.5859375 697.72265625 C14.84632813 698.49480469 15.10671875 699.26695312 15.375 700.0625 C15.63023437 700.81660156 15.88546875 701.57070313 16.1484375 702.34765625 C17.17400654 705.5419745 18.07833371 708.77416798 19 712 C11.575 714.475 11.575 714.475 4 717 C2.35 715.02 0.7 713.04 -1 711 C-4.03852705 712.40976705 -6.5939595 714.08870228 -9.25 716.125 C-9.95640625 716.66382813 -10.6628125 717.20265625 -11.390625 717.7578125 C-11.92171875 718.16773438 -12.4528125 718.57765625 -13 719 C-14.31746333 716.41909233 -15.62909617 713.83549542 -16.9375 711.25 C-17.31068359 710.52039063 -17.68386719 709.79078125 -18.06835938 709.0390625 C-18.60493164 707.97558594 -18.60493164 707.97558594 -19.15234375 706.890625 C-19.48226318 706.24125977 -19.81218262 705.59189453 -20.15209961 704.92285156 C-21.01547803 702.96489923 -21.50604129 701.07727384 -22 699 C-23.25039063 699.16081055 -24.50078125 699.32162109 -25.7890625 699.48730469 C-31.3214028 700.09850427 -36.81317957 700.17978111 -42.375 700.203125 C-43.45716797 700.20882507 -44.53933594 700.21452515 -45.65429688 700.22039795 C-47.9436751 700.22980827 -50.23306664 700.23636607 -52.52246094 700.24023438 C-55.93450486 700.24981608 -59.34591274 700.28082585 -62.7578125 700.3125 C-82.57201763 700.40891665 -102.22961618 698.8354684 -121.5625 694.3125 C-122.67343018 694.05686279 -123.78436035 693.80122559 -124.92895508 693.5378418 C-177.17115624 681.09215658 -219.51364954 652.34912031 -257.1479187 615.02630615 C-258.15653658 614.02638515 -259.16651817 613.02783742 -260.17800903 612.03082275 C-266.17934507 606.10523113 -271.81593545 600.01768853 -277.06274414 593.40478516 C-278.88303579 591.14519187 -280.7785013 589.00275252 -282.75 586.875 C-288.9565063 579.95566723 -294.44695027 572.44476542 -300 565 C-300.54881836 564.26539551 -301.09763672 563.53079102 -301.66308594 562.77392578 C-348.28010519 500.0863755 -366.27611181 431.54628736 -366.1875 354.125 C-366.18659363 352.64264359 -366.18659363 352.64264359 -366.18566895 351.13034058 C-366.12323539 313.07670677 -364.35174875 275.05548055 -355 238 C-354.81356934 237.24654297 -354.62713867 236.49308594 -354.43505859 235.71679688 C-347.18986868 207.04571587 -332.40096908 180.91300612 -314 158 C-313.58363281 157.47776855 -313.16726563 156.95553711 -312.73828125 156.41748047 C-305.98264555 148.02230395 -298.52917318 140.32321398 -290.9375 132.6875 C-290.02774414 131.768479 -289.11798828 130.84945801 -288.18066406 129.90258789 C-282.84204618 124.58844587 -277.33818441 119.66165664 -271.44287109 114.97143555 C-269.1160461 113.09365104 -266.89388611 111.1419792 -264.6875 109.125 C-259.34464449 104.32964558 -253.68236616 99.95591324 -248.01123047 95.56103516 C-245.8899433 93.91457847 -243.77463208 92.26066228 -241.66015625 90.60546875 C-233.92543866 84.55805118 -226.15434245 78.56750007 -218.27905273 72.70410156 C-214.30752931 69.74382513 -210.36375517 66.75061367 -206.4375 63.73046875 C-205.48464111 62.99876465 -204.53178223 62.26706055 -203.55004883 61.51318359 C-201.66972049 60.06761603 -199.79186988 58.61881873 -197.91674805 57.16650391 C-196.63344604 56.18109619 -196.63344604 56.18109619 -195.32421875 55.17578125 C-194.1808606 54.29273315 -194.1808606 54.29273315 -193.0144043 53.3918457 C-191 52 -191 52 -188 51 C-176.29384966 63.48519362 -176.29384966 63.48519362 -172 70 C-178.14779183 74.48836216 -184.48456442 78.59437496 -190.9375 82.625 C-212.01314984 95.82708151 -232.26070943 110.10499219 -250.6640625 126.8828125 C-252.76918748 128.79080203 -254.90613634 130.65047069 -257.0625 132.5 C-264.17229806 138.7192779 -270.60051787 145.22898062 -276 153 C-275.5875 152.57589844 -275.175 152.15179688 -274.75 151.71484375 C-271.08447467 147.99204459 -267.31401576 144.48147875 -263.35546875 141.07421875 C-260.98365613 138.98560764 -258.67098958 136.84465604 -256.36157227 134.68774414 C-250.96426704 129.64936719 -245.47818815 124.81365807 -239.71484375 120.19140625 C-236.93323563 117.94610818 -234.21964117 115.63230488 -231.5 113.3125 C-214.17673995 98.86521568 -195.40714826 86.43385 -176 75 C-175.13632813 74.37996094 -174.27265625 73.75992188 -173.3828125 73.12109375 C-171 72 -171 72 -168.62475586 72.70874023 C-165.89422013 74.05203886 -163.9203161 75.5543095 -161.62109375 77.5390625 C-152.87409672 85.12235216 -152.87409672 85.12235216 -142.12890625 87.88525391 C-136.64357145 86.50345927 -131.76288106 84.01742063 -126.95678711 81.07006836 C-124.97202047 79.9846994 -123.20850304 79.44688185 -121 79 C-121 79.66 -121 80.32 -121 81 C-123.23298634 82.83566877 -125.47723383 84.55214531 -127.8125 86.25 C-128.52809082 86.77795166 -129.24368164 87.30590332 -129.98095703 87.84985352 C-131.52158745 88.98548312 -133.06431351 90.118274 -134.60888672 91.24853516 C-136.9650827 92.97442345 -139.31367359 94.71015367 -141.66015625 96.44921875 C-153.1143548 104.9302353 -164.66167228 113.27951272 -176.22949219 121.60449219 C-192.69988412 133.46173277 -209.14167599 145.32948158 -225 158 C-225.88945312 158.70640625 -226.77890625 159.4128125 -227.6953125 160.140625 C-230.13733365 162.08505564 -232.56975221 164.04088264 -235 166 C-235.87011719 166.69480469 -236.74023438 167.38960937 -237.63671875 168.10546875 C-243.70382854 172.99550731 -249.48180607 178.1085339 -255.17578125 183.421875 C-257.14027814 185.21519166 -259.09831263 186.92429101 -261.15234375 188.60546875 C-264.89236653 191.7503713 -267.86047 195.27219514 -271 199 C-271.78761719 199.89976562 -272.57523437 200.79953125 -273.38671875 201.7265625 C-295.23163071 227.08405602 -303.84978658 257.4163543 -306.5625 290.25 C-306.62281403 290.95743347 -306.68312805 291.66486694 -306.74526978 292.39373779 C-309.05322041 319.71894222 -310.15959806 347.14277025 -310.25 374.5625 C-310.25526703 375.36318909 -310.26053406 376.16387817 -310.26596069 376.98883057 C-310.34621588 392.59149055 -309.26776954 408.17289774 -305.875 423.4375 C-305.55740723 424.86835937 -305.55740723 424.86835937 -305.23339844 426.328125 C-300.52218657 446.33917961 -291.5191224 464.48194122 -278 480 C-277.00613281 481.14082031 -277.00613281 481.14082031 -275.9921875 482.3046875 C-273.68928831 484.89651131 -271.3505103 487.45125389 -269 490 C-268.49726563 490.54785156 -267.99453125 491.09570312 -267.4765625 491.66015625 C-251.48200258 509.11269259 -251.48200258 509.11269259 -234.0859375 525.1328125 C-230.49911197 528.34349153 -227.16709173 531.8139398 -223.78344727 535.23608398 C-220.29932822 538.74453559 -216.72860392 542.06183709 -212.95703125 545.26171875 C-209.7128047 548.14331718 -206.71348128 551.26723544 -203.6875 554.375 C-200.91118301 557.08675148 -198.02389087 559.61654741 -195.09228516 562.15722656 C-191.70565214 565.13999273 -188.45637138 568.26453386 -185.1875 571.375 C-179.86633222 576.40041071 -174.47404962 581.22297389 -168.7421875 585.78125 C-166.74754987 587.39514484 -164.80753932 589.02564883 -162.8828125 590.71875 C-128.4059125 621.03595357 -90.41489267 646.65444571 -43.25 644.5 C-42.15945313 644.45230469 -41.06890625 644.40460937 -39.9453125 644.35546875 C-37.29676286 644.23930429 -34.6483421 644.12078804 -32 644 C-32.01047363 642.95585938 -32.02094727 641.91171875 -32.03173828 640.8359375 C-32.1965072 622.77591017 -32.29043923 604.77300554 -31 586.75 C-27.63303706 553.73089746 -27.63303706 553.73089746 -37.359375 523.0546875 C-57.70223844 500.59697192 -98.09322986 490.00180254 -126.625 484.5 C-159.35903954 478.16979652 -188.50656599 461.67554036 -212.83984375 439.0078125 C-214.86538639 437.12512006 -216.94704391 435.34262939 -219.0625 433.5625 C-241.26412539 414.06947291 -258.57318977 384.48860381 -262 355 C-262.81918771 341.0583526 -262.4284807 327.35009144 -258 314 C-255.18185434 312.59092717 -253.82722796 313.49127309 -250.875 314.4375 C-249.96492188 314.72496094 -249.05484375 315.01242187 -248.1171875 315.30859375 C-247.06917969 315.65083984 -247.06917969 315.65083984 -246 316 C-245.34 314.68 -244.68 313.36 -244 312 C-238.50886174 312.23454611 -235.94484042 313.38702953 -232.265625 317.20703125 C-231.51539063 318.03267578 -231.51539063 318.03267578 -230.75 318.875 C-230.234375 319.41769531 -229.71875 319.96039063 -229.1875 320.51953125 C-227.78058875 322.00258976 -226.38959292 323.50070238 -225 325 C-224.34515625 325.45632813 -223.6903125 325.91265625 -223.015625 326.3828125 C-222 328 -222 328 -222.78515625 331.69140625 C-222.99414551 332.39797363 -223.20313477 333.10454102 -223.41845703 333.83251953 C-227.53341741 349.16947093 -221.72036007 366.17548451 -214.34985352 379.54736328 C-198.71519818 406.36081498 -167.3335096 434.65290658 -137 443 C-135.97293945 442.80124268 -134.94587891 442.60248535 -133.88769531 442.39770508 C-129.04240312 441.90203935 -125.62079562 442.91965218 -121.04296875 444.39453125 C-120.19068695 444.65733383 -119.33840515 444.92013641 -118.46029663 445.19090271 C-115.69741095 446.0488379 -112.94236368 446.92917339 -110.1875 447.8125 C-108.28055123 448.41449463 -106.37356862 449.01638207 -104.46655273 449.61816406 C-73.62136698 459.42543229 -40.97415379 470.60401444 -16 492 C-11.0659796 488.87760696 -6.13513514 485.75331092 -1.2578125 482.54296875 C20.78168483 468.06866455 43.84773537 455.27448513 66.90576172 442.51147461 C141.13949758 404.91960557 141.13949758 404.91960557 199 347 C199.556875 346.08734375 200.11375 345.1746875 200.6875 344.234375 C204.49944548 337.38020381 205.89649498 331.06468184 206.578125 323.34765625 C207.06479381 319.48584914 207.57748821 316.15908368 210.6875 313.625 C214.20854983 312.67336491 216.48286422 313.02975565 220 314 C222.42013907 315.81642823 224.02979689 317.64536702 226 320 C226 320.66 226 321.32 226 322 C226.66 321.67 227.32 321.34 228 321 C229.875 320.83203125 229.875 320.83203125 232 320.8125 C232.70125 320.79832031 233.4025 320.78414063 234.125 320.76953125 C236 321 236 321 238 323 C238.34801178 328.56818848 237.71004246 333.58171258 236.375 339 C236.19606201 339.73202637 236.01712402 340.46405273 235.83276367 341.21826172 C230.70686123 361.3543458 221.79474546 377.40121144 207 392 C206.14921875 392.86109375 205.2984375 393.7221875 204.421875 394.609375 C188.98644782 409.47662695 169.06376388 419.43565737 150.40234375 429.59765625 C123.06541014 444.46761876 123.06541014 444.46761876 99 464 C97.31760184 465.50571999 95.62995761 467.00559594 93.9375 468.5 C90.73241506 471.36718451 87.71231092 474.3218717 84.75 477.4375 C72.77223835 489.37837337 58.23619862 496.14457327 43.125 503.25 C40.08848661 504.68407038 37.05415102 506.12220103 34.02462769 507.57098389 C32.156737 508.46374098 30.28483995 509.3481851 28.40823364 510.22247314 C23.33419013 512.64174611 18.95312572 515.31083478 14.58908081 518.8649292 C13 520 13 520 11 520 C10.71125 520.5775 10.4225 521.155 10.125 521.75 C9.43951106 523.12097788 8.71944473 524.47621927 7.94140625 525.796875 C5.405812 531.73079682 6.91854712 539.58856736 7.5 545.875 C8.63473597 558.3019496 7.84895388 570.75019916 7.2020874 583.18389893 C6.2200151 602.11723942 5.5011982 621.04818836 5 640 C5.64324219 639.88100342 6.28648437 639.76200684 6.94921875 639.6394043 C12.04326562 638.70425429 17.1403613 637.80309751 22.25 636.95703125 C46.54469819 632.87915951 70.12621696 627.2527554 93 618 C93.83547363 617.66274902 94.67094727 617.32549805 95.53173828 616.97802734 C121.90387477 606.14009257 145.46121147 590.56524221 165.58984375 570.40625 C167.00797568 568.99041651 168.44677331 567.59392466 169.9296875 566.24609375 C214.86303038 524.47071674 240.61949985 453.61498109 259.65576172 396.74584961 C263.06785512 386.56664924 266.56130781 376.46483681 270.5625 366.5 C271.11599121 365.11639282 271.11599121 365.11639282 271.68066406 363.70483398 C274.08180909 357.86310375 276.83458128 352.25082679 279.74584961 346.64648438 C291.49630679 321.85089243 274.12218857 277.64470431 265.75024414 253.86816406 C253.30699569 219.87258108 236.3881903 189.03102283 211 163 C210.37158203 162.35111816 209.74316406 161.70223633 209.09570312 161.03369141 C201.91091994 153.63851162 194.72642151 146.4267453 186.609375 140.05078125 C183.84095323 137.87500067 181.17617789 135.60055817 178.5 133.3125 C128.05910443 91.32175446 76.13413329 68.9217282 12 59 C12.01848999 60.6547937 12.01848999 60.6547937 12.03735352 62.34301758 C12.10212162 70.52932362 12.03947196 78.56016961 10.9375 86.6875 C10.75102905 88.13926636 10.75102905 88.13926636 10.56079102 89.62036133 C9.6626317 96.19931544 8.53037004 102.72433549 7.3125 109.25 C7.08416222 110.47370049 7.08416222 110.47370049 6.85121155 111.72212219 C6.09096974 115.77206196 5.31456714 119.81806038 4.51342773 123.86010742 C2.76145372 132.84593135 1.55736141 141.73060613 0.77879333 150.85224915 C-0.24100299 162.42497897 -2.15553007 173.86796819 -3.96826172 185.33789062 C-6.25251089 199.86312669 -7.91850472 214.33460446 -9 229 C-8.47005432 228.59378418 -7.94010864 228.18756836 -7.394104 227.76904297 C8.08371069 215.92557618 24.12141325 206.29738155 41.625 197.75 C49.03994472 194.12553609 55.65147203 190.33594913 62 185 C62.95519531 184.26330078 62.95519531 184.26330078 63.9296875 183.51171875 C73.51193819 175.27098316 77.50159395 161.6734171 80.140625 149.7734375 C81.91102187 141.9997858 83.91227914 134.27485573 89 128 C92.21630218 126.39184891 95.52189242 126.38582361 99 127 C101.875 129.375 101.875 129.375 104 132 C105.76295072 134.22970203 105.76295072 134.22970203 107.98828125 134.01953125 C108.75527344 133.95121094 109.52226562 133.88289062 110.3125 133.8125 C113.97508055 133.74751873 114.84489024 133.89870383 118.0625 136 C122.00877068 142.1103546 119.87749857 148.89768429 118.47924805 155.66552734 C114.23129079 174.85723309 108.3661276 192.15461717 95 207 C94.40960938 207.68320313 93.81921875 208.36640625 93.2109375 209.0703125 C80.27538493 223.10676316 60.34792072 231.01963852 43.38305664 238.96826172 C23.26643979 248.44087876 7.13045153 260.315266 -6.20922852 278.22924805 C-9.97980857 283.23827171 -13.86242604 287.24640744 -20 289 C-23.0625 289.3125 -23.0625 289.3125 -27 289 C-27.97066406 288.93941406 -28.94132812 288.87882812 -29.94140625 288.81640625 C-33.44394323 288.33077842 -35.91772433 287.75500102 -39 286 C-40.87697624 282.64025732 -41.83791656 279.40926661 -42.875 275.70703125 C-49.28465742 254.58631982 -71.2095854 241.44266867 -89.55615234 231.63330078 C-94.35706151 229.10393686 -99.17631661 226.6103526 -103.99609375 224.1171875 C-122.39966837 214.58478809 -139.88238656 205.3938979 -155 191 C-155.62390625 190.46246094 -156.2478125 189.92492187 -156.890625 189.37109375 C-165.37480603 181.74679593 -171.81199711 169.1295265 -174 158 C-173.58984375 155.6640625 -173.58984375 155.6640625 -173 154 C-170.3897175 153.02114406 -168.66316777 152.71788629 -166.0625 153.82421875 C-164.71404286 154.55207914 -163.37952109 155.30653484 -162.0625 156.08984375 C-159.45915201 157.23866966 -157.82120506 157.38610582 -155 157 C-152.7642489 155.5429706 -152.7642489 155.5429706 -150.8125 153.5625 C-146.15046862 149.15006112 -146.15046862 149.15006112 -142.125 148.625 C-139 149 -139 149 -137 150.875 C-135 154 -135 154 -133.9140625 156.171875 C-124.96826248 173.19600352 -104.16725734 181.49550854 -87.72900391 189.57006836 C-86.64280762 190.1038208 -85.55661133 190.63757324 -84.4375 191.1875 C-83.35130371 191.72060791 -82.26510742 192.25371582 -81.14599609 192.80297852 C-69.01052039 198.84580118 -57.50693859 205.84360953 -46 213 C-46.14002441 212.43071777 -46.28004883 211.86143555 -46.42431641 211.27490234 C-48.4722313 201.76685539 -48.3915099 192.30271605 -48.375 182.625 C-48.37611786 181.70157806 -48.37723572 180.77815613 -48.37838745 179.82675171 C-48.36685275 160.20455078 -46.69919791 140.82132971 -44.70960999 121.31565857 C-43.55925864 109.88289218 -42.80400443 98.43306902 -42.8125 86.9375 C-42.81185547 85.98866943 -42.81121094 85.03983887 -42.81054688 84.06225586 C-42.88804924 73.32553624 -43.87811863 62.67129978 -45 52 C-69.31378264 53.28394573 -92.29400935 57.61449973 -115.8684082 63.58862305 C-125.06581846 65.89468117 -134.46077389 68.22219884 -144 68 C-144.91160286 60.64206267 -145.11459026 53.41017023 -145 46 C-115.26632248 33.68737583 -80.39651291 33.04819949 -48.6875 32.4375 C-46.57876918 32.39421322 -44.47004511 32.35059606 -42.36132812 32.30664062 C-37.24095532 32.20061861 -32.12051192 32.09906558 -27 32 C-32.31593238 31.71071849 -37.63208804 31.42609683 -42.94848633 31.14550781 C-44.75128663 31.04973555 -46.5540236 30.95276246 -48.35668945 30.85449219 C-64.32491156 29.98535263 -80.08995949 29.88622881 -96.0625 30.75 C-96.84059021 30.79157227 -97.61868042 30.83314453 -98.42034912 30.87597656 C-116.0704303 31.84890435 -133.56401833 33.86954992 -150.85693359 37.6328125 C-153 38 -153 38 -157 38 C-157.33896268 35.16724047 -157.67129694 32.33395339 -158 29.5 C-158.09539062 28.70851562 -158.19078125 27.91703125 -158.2890625 27.1015625 C-158.87107882 22.02970596 -159.09367085 17.10506141 -159 12 C-138.99846471 2.08695838 -115.89311097 -0.50552657 -94 -3 C-92.73929687 -3.15577515 -92.73929687 -3.15577515 -91.453125 -3.31469727 C-61.27855696 -6.62472344 -29.9427279 -4.38235468 0 0 Z M-15 33 C-15 33.33 -15 33.66 -15 34 C-12.69 34 -10.38 34 -8 34 C-8 33.67 -8 33.34 -8 33 C-10.31 33 -12.62 33 -15 33 Z M-6 34 C-6 34.33 -6 34.66 -6 35 C-4.02 35 -2.04 35 0 35 C0 34.67 0 34.34 0 34 C-1.98 34 -3.96 34 -6 34 Z M319 363 C319 370.59 319 378.18 319 386 C324.62004513 385.56821228 324.62004513 385.56821228 326.9375 383.4375 C328.51219506 379.82496427 328.0523098 376.6830843 327 373 C324.71690299 368.90617088 322.35850411 366.35850411 319 363 Z M305.55078125 402.10546875 C294.23332714 414.94809278 290.58538219 442.35134486 288 459 C290.92675604 456.07324396 291.89074095 452.3980358 293.30078125 448.58203125 C293.77815987 447.30787605 293.77815987 447.30787605 294.2651825 446.00798035 C294.94101931 444.20070532 295.61418688 442.39243024 296.28491211 440.58325195 C297.2925393 437.86632132 298.30856465 435.15265922 299.32617188 432.43945312 C306.43078887 416.57082242 306.43078887 416.57082242 310 400 C307.71447061 399.78270457 307.71447061 399.78270457 305.55078125 402.10546875 Z M287 459 C288 462 288 462 288 462 Z M286 462 C287 464 287 464 287 464 Z M285 464 C286 466 286 466 286 466 Z M283 469 C284 471 284 471 284 471 Z M282 471 C283 473 283 473 283 473 Z M281 473 C282 475 282 475 282 475 Z M280 475 C281 477 281 477 281 477 Z M279 477 C280 479 280 479 280 479 Z M-259 560 C-258.67 560.99 -258.34 561.98 -258 563 C-258 562.01 -258 561.02 -258 560 C-258.33 560 -258.66 560 -259 560 Z M-257 563 C-255.55094859 567.02796567 -253.60665383 570.36715419 -251.25390625 573.9375 C-250.88701187 574.49485336 -250.52011749 575.05220673 -250.1421051 575.62644958 C-248.95548808 577.42211202 -247.76033157 579.21180133 -246.5625 581 C-246.15505554 581.6098172 -245.74761108 582.2196344 -245.32781982 582.84793091 C-239.38543499 591.71794101 -233.35532722 600.22918101 -226 608 C-225.53996582 608.49951172 -225.07993164 608.99902344 -224.60595703 609.51367188 C-214.8072444 620.11653417 -203.89381349 628.11698299 -191.1875 634.9375 C-190.5066333 635.30319092 -189.8257666 635.66888184 -189.12426758 636.0456543 C-182.97912477 639.22412519 -176.07512567 642.68468958 -169 642 C-172.2889913 638.5296552 -175.50492946 635.83636234 -179.5703125 633.328125 C-180.6325 632.66296875 -181.6946875 631.9978125 -182.7890625 631.3125 C-184.9890761 629.95230424 -187.18958608 628.59291098 -189.390625 627.234375 C-199.18636869 621.09728257 -208.03657414 614.04810173 -216.5 606.1875 C-217.04132568 605.68524902 -217.58265137 605.18299805 -218.14038086 604.66552734 C-226.57570909 596.737578 -234.07014397 587.97496652 -241.56591797 579.171875 C-244.88821257 575.27534319 -248.25390588 571.42391001 -251.6875 567.625 C-252.49574219 566.73039063 -253.30398437 565.83578125 -254.13671875 564.9140625 C-254.75160156 564.28242187 -255.36648437 563.65078125 -256 563 C-256.33 563 -256.66 563 -257 563 Z " fill="#FFFFFF" transform="translate(366,4)"/>
<path d="M0 0 C5.09595491 1.34104077 9.12597125 3.77628515 13.53515625 6.5625 C15.96474977 7.97944202 18.36652336 9.02359511 21 10 C21.08636719 10.98097656 21.17273438 11.96195313 21.26171875 12.97265625 C23.18042347 32.28761707 29.95466997 49.38235147 43 64 C43.65355469 64.73605469 44.30710938 65.47210938 44.98046875 66.23046875 C55.75546676 77.65237095 69.20286742 85.7624967 83 93 C83.60295898 93.32000977 84.20591797 93.64001953 84.82714844 93.96972656 C100.67727858 102.33147007 117.26625083 109.28813408 133.7421875 116.30859375 C155.46928213 125.57739507 176.46143043 134.98559256 194.74609375 150.23828125 C197.06356156 152.04968157 199.45029564 153.53852925 202 155 C202.89525391 154.30777344 202.89525391 154.30777344 203.80859375 153.6015625 C223.32252975 138.92986619 245.72684016 128.85156065 267.6875 118.4375 C301.40207401 102.42110308 336.56818886 84.76996456 351 48 C353.69162669 39.83365689 355.0033013 31.45167198 356 22.9375 C356.87316086 15.78517364 358.22496665 10.84806055 363.375 5.5625 C366.4256539 3.74663458 368.44587236 3.07404433 372 3 C376.56521739 5.13043478 376.56521739 5.13043478 378 8 C379.84281597 26.66984048 374.45133627 46.30549865 369 64 C372.81328853 55.3056034 375.07807882 46.40986352 377.26757812 37.19335938 C379.89356037 26.82764 379.89356037 26.82764 385 23 C390.75 24.625 390.75 24.625 393 28 C395.92752488 52.33930569 382.45819412 76.86256129 367.9375 95.375 C366.63927126 96.92870348 365.32662908 98.4704747 364 100 C363.28070312 100.84046875 362.56140625 101.6809375 361.8203125 102.546875 C339.72134347 127.78099189 308.89752148 141.53994507 278.90869141 155.12329102 C246.68023274 167.82139546 246.68023274 167.82139546 223.4453125 191.4375 C222.79175781 193.2009375 222.79175781 193.2009375 222.125 195 C219.369669 201.75984057 216.6498538 205.6750731 210 209 C197.35405726 209.9844147 197.35405726 209.9844147 192 206 C187.04564127 201.25498037 183.44178921 195.78915315 179.96875 189.90625 C162.28953914 163.8083673 125.33957602 153.58357306 97.37841797 142.52856445 C59.79749689 127.65929721 24.04910899 112.17071776 6.3125 73.4375 C2.81715711 64.61648265 0.93860843 55.26182363 -1 46 C-1.25007812 44.83984375 -1.50015625 43.6796875 -1.7578125 42.484375 C-3.20854492 34.35210033 -3.23171384 26.17985753 -3.3125 17.9375 C-3.33030518 16.74624512 -3.34811035 15.55499023 -3.36645508 14.32763672 C-3.36540771 13.19729004 -3.36436035 12.06694336 -3.36328125 10.90234375 C-3.36626221 9.88648193 -3.36924316 8.87062012 -3.37231445 7.82397461 C-2.94470094 4.58056119 -1.84873811 2.66693686 0 0 Z " fill="#FFFFFF" transform="translate(153,212)"/>
</svg>
